<svg width="32" height="32" viewBox="0 0 32 32" fill="none" xmlns="http://www.w3.org/2000/svg">
<path fill-rule="evenodd" clip-rule="evenodd" d="M24.0664 6.6653C23.3638 6.00136 22.4634 5.61685 21.5035 5.50241C19.9309 5.31493 17.0501 5.07031 12.7242 5.07031C9.15504 5.07031 6.53884 5.23683 4.83 5.40039C3.31449 5.54545 2.15897 6.64185 2.0148 8.15743C1.86867 9.69356 1.7339 12.0814 1.73389 15.6636C1.73387 19.3752 1.87854 21.9564 2.03063 23.6444C2.17629 25.261 3.40715 26.4712 5.02345 26.6201C6.73377 26.7776 9.28717 26.932 12.7242 26.932C13.8934 26.932 14.957 26.9141 15.9178 26.8844C15.8236 26.7703 15.7287 26.6546 15.6332 26.537C14.6444 25.3216 14.18 23.2357 15.5342 21.5725C15.8753 21.1536 16.2338 20.7904 16.5661 20.4874C18.4274 18.7904 20.8981 19.4331 22.2152 20.8005C22.744 20.0118 23.3966 19.0377 24.1699 17.882C25.0992 16.4931 27.2791 15.2898 29.4028 16.5871C29.4705 16.6284 29.5395 16.672 29.6094 16.7178C29.758 15.8439 29.646 14.9364 29.273 14.1142C27.5585 10.335 25.367 7.89423 24.0664 6.6653ZM28.8808 18.6532C28.7053 18.5165 28.5295 18.3972 28.3602 18.2938C27.4376 17.7302 26.371 18.189 25.8321 18.9943C24.9136 20.367 24.165 21.484 23.592 22.3383L23.3649 22.6767L23.1276 23.0302C22.8263 23.4791 22.5982 23.8184 22.4449 24.0464C22.3696 23.9649 22.281 23.8685 22.1809 23.759C21.8892 23.44 21.501 23.0104 21.0645 22.515C20.9908 22.4313 20.9158 22.3458 20.8396 22.2586C20.1039 21.4169 18.8066 21.1511 17.9136 21.9653C17.6385 22.2161 17.3516 22.5079 17.0851 22.8352C16.4796 23.579 16.63 24.5932 17.1846 25.275C17.6201 25.8103 18.0411 26.3082 18.4428 26.7684C19.7557 26.6868 20.7714 26.5872 21.5035 26.4999C22.4634 26.3855 23.3638 26.0009 24.065 25.3355C25.2682 24.1938 27.235 22.0052 28.8808 18.6532Z" fill="#B2D6F7"/>
<path fill-rule="evenodd" clip-rule="evenodd" d="M28.3602 18.2886C27.4376 17.725 26.3709 18.1838 25.8321 18.9891C24.6406 20.7698 23.7352 22.12 23.1276 23.025C22.8263 23.4739 22.5983 23.8132 22.4449 24.0412C22.3696 23.9597 22.2809 23.8633 22.1809 23.7538C21.8399 23.3809 21.3671 22.857 20.8395 22.2534C20.1039 21.4117 18.8066 21.1459 17.9135 21.9602C17.6385 22.2109 17.3517 22.5027 17.0851 22.83C16.4796 23.5738 16.63 24.588 17.1846 25.2698C18.5639 26.9652 19.7975 28.2854 20.7336 29.2216C21.8594 30.3476 23.6241 30.2281 24.5942 28.9682C25.6801 27.5582 27.3533 25.2528 29.7005 21.674C30.1105 21.0488 30.2539 20.1638 29.7313 19.4923C29.3139 18.9562 28.8138 18.5657 28.3602 18.2886Z" fill="#0C71C9"/>
</svg>
