<svg width="32" height="32" viewBox="0 0 32 32" fill="none" xmlns="http://www.w3.org/2000/svg">
<path fill-rule="evenodd" clip-rule="evenodd" d="M8.3336 5.33333L9.5902 4.88752C9.4014 4.3555 8.89807 4 8.3336 4C7.76907 4 7.26573 4.3555 7.077 4.88752L8.3336 5.33333ZM8.3336 5.33333C9.5902 4.88752 9.59013 4.8874 9.5902 4.88752L9.5904 4.88819L9.591 4.88995L9.5934 4.89672L9.60273 4.92302L9.6388 5.02512C9.6704 5.11457 9.71667 5.24599 9.7758 5.41452C9.89407 5.75155 10.0637 6.23708 10.2695 6.83213C10.6809 8.02187 11.2377 9.65093 11.8183 11.4071C12.9659 14.8786 14.2493 18.9716 14.6443 21.0888C14.7793 21.8127 14.3019 22.509 13.5781 22.6441C12.8542 22.7791 12.1579 22.3017 12.0229 21.5779C11.6678 19.6744 10.4512 15.7674 9.2864 12.2441C8.95327 11.2365 8.62787 10.2705 8.3336 9.40633C8.03927 10.2705 7.71387 11.2365 7.38073 12.2441C6.21596 15.7674 4.99935 19.6744 4.64429 21.5779C4.50926 22.3017 3.81297 22.7791 3.08907 22.6441C2.36518 22.509 1.88781 21.8127 2.02285 21.0888C2.41779 18.9716 3.70118 14.8786 4.84887 11.4071C5.42945 9.65093 5.98621 8.02187 6.39769 6.83213C6.60349 6.23708 6.77307 5.75155 6.89133 5.41452C6.95047 5.24599 6.99673 5.11457 7.02833 5.02512L7.0644 4.92302L7.07373 4.89672L7.07613 4.88995L7.07673 4.88819L7.077 4.88752C7.077 4.8874 7.077 4.88752 8.3336 5.33333ZM22.4103 8.22087L23.6669 8.66667C22.4103 8.22087 22.4103 8.22073 22.4103 8.22087L22.4101 8.22153L22.4095 8.22327L22.4071 8.23007L22.3977 8.25633L22.3617 8.35847C22.3301 8.44793 22.2838 8.57933 22.2247 8.74787C22.1064 9.08487 21.9368 9.5704 21.731 10.1655C21.3195 11.3552 20.7628 12.9843 20.1822 14.7404C19.0345 18.2119 17.7511 22.3049 17.3562 24.4221C17.2211 25.1461 17.6985 25.8423 18.4224 25.9774C19.1463 26.1124 19.8426 25.6351 19.9776 24.9112C20.3327 23.0077 21.5493 19.1007 22.7141 15.5775C23.0472 14.5699 23.3726 13.6038 23.6669 12.7397C23.9612 13.6038 24.2866 14.5699 24.6197 15.5775C25.7845 19.1007 27.0011 23.0077 27.3562 24.9112C27.4912 25.6351 28.1875 26.1124 28.9114 25.9774C29.6353 25.8423 30.1127 25.1461 29.9776 24.4221C29.5827 22.3049 28.2993 18.2119 27.1516 14.7404C26.571 12.9843 26.0143 11.3552 25.6028 10.1655C25.397 9.5704 25.2274 9.08487 25.1091 8.74787C25.05 8.57933 25.0037 8.44793 24.9721 8.35847L24.9361 8.25633L24.9267 8.23007L24.9243 8.22327L24.9237 8.22153C24.9237 8.2214 24.9235 8.22087 23.6669 8.66667L24.9235 8.22087C24.7347 7.68887 24.2314 7.33333 23.6669 7.33333C23.1024 7.33333 22.5991 7.68887 22.4103 8.22087Z" fill="#B2D6F7"/>
<path fill-rule="evenodd" clip-rule="evenodd" d="M16 1C16.9205 1 17.6667 1.74619 17.6667 2.66667V5.34464C23.4618 6.64213 26.2194 7.308 27.2852 7.57273C27.5602 7.64107 27.8932 7.77173 28.1772 8.0168C28.4825 8.28033 28.7357 8.68727 28.7353 9.215C28.7351 9.409 28.7121 9.61793 28.6621 9.8422C28.6121 10.0665 28.5443 10.2654 28.4621 10.4411C28.2385 10.9192 27.8365 11.1802 27.4483 11.2892C27.0871 11.3905 26.7301 11.3675 26.4521 11.3127C25.2995 11.0852 22.1987 10.4515 15.5383 8.96787C8.87773 7.4842 5.80118 6.74187 4.66097 6.45866C4.38597 6.39035 4.053 6.25968 3.76901 6.0146C3.46366 5.75109 3.21045 5.34413 3.21094 4.81638C3.21112 4.62239 3.23412 4.41349 3.28408 4.1892C3.33405 3.96491 3.40188 3.76599 3.48405 3.59027C3.70762 3.11221 4.10962 2.8512 4.49794 2.74221C4.85911 2.64084 5.21606 2.66385 5.49405 2.71872C6.51965 2.92115 9.0876 3.44517 14.3333 4.60339V2.66667C14.3333 1.74619 15.0795 1 16 1ZM8.3328 19C5.94318 19 4.11573 19.1406 3.0171 19.2561C1.88639 19.3751 0.878552 20.3909 1.11741 21.6975C1.73921 25.0987 4.73789 27.6667 8.3328 27.6667C11.9277 27.6667 14.9265 25.0987 15.5483 21.6975C15.7871 20.3909 14.7793 19.3751 13.6485 19.2561C12.5499 19.1406 10.7225 19 8.3328 19ZM23.6661 22.3333C21.2765 22.3333 19.4491 22.4739 18.3505 22.5895C17.2197 22.7084 16.2119 23.7243 16.4507 25.0309C17.0725 28.4321 20.0712 31 23.6661 31C27.2611 31 30.2598 28.4321 30.8816 25.0309C31.1205 23.7243 30.1126 22.7084 28.9819 22.5895C27.8833 22.4739 26.0558 22.3333 23.6661 22.3333Z" fill="#0C71C9"/>
</svg>
